<?xml version="1.0" encoding="UTF-8"?>
<svg xmlns="http://www.w3.org/2000/svg" xmlns:xlink="http://www.w3.org/1999/xlink" width="375pt" height="374.999991pt" viewBox="0 0 375 374.999991" version="1.2">
<defs>
<clipPath id="clip1">
  <path d="M 76.695312 8.222656 L 310.289062 8.222656 L 310.289062 348.382812 L 76.695312 348.382812 Z M 76.695312 8.222656 "/>
</clipPath>
</defs>
<g id="surface1">
<g clip-path="url(#clip1)" clip-rule="nonzero">
<path style=" stroke:none;fill-rule:evenodd;fill:rgb(6.269836%,5.879211%,5.099487%);fill-opacity:1;" d="M 84.210938 146.074219 C 84.210938 170.972656 84.214844 198.652344 84.210938 225.988281 C 84.210938 253.601562 81.808594 281.433594 84.761719 304.253906 C 87.09375 322.28125 98.464844 334.710938 113.324219 339.285156 C 125.113281 342.914062 142.546875 340.929688 157.269531 340.929688 C 184.304688 340.925781 207.578125 340.929688 234.722656 340.929688 C 247.667969 340.925781 262.320312 342.492188 272.625 339.832031 C 286.046875 336.371094 298.96875 325.566406 302.285156 310.277344 C 304.800781 298.699219 302.835938 283.296875 302.835938 269.226562 C 302.835938 227.667969 302.835938 183.6875 302.835938 144.433594 C 230.144531 144.433594 157.453125 144.433594 84.761719 144.433594 C 84.121094 144.523438 84.164062 145.296875 84.210938 146.074219 Z M 302.835938 92.984375 C 302.835938 78.382812 304.964844 62.476562 302.835938 48.648438 C 300.703125 34.792969 289.164062 24.179688 278.117188 19.640625 C 265.890625 14.613281 248.363281 15.808594 231.976562 15.808594 C 215.304688 15.808594 198.441406 15.808594 181.988281 15.808594 C 148.089844 15.808594 112.117188 11.667969 95.746094 28.398438 C 74.816406 49.792969 87.980469 96.332031 84.210938 137.320312 C 157.089844 137.320312 229.960938 137.320312 302.835938 137.320312 C 302.835938 121.085938 302.835938 107.285156 302.835938 92.984375 Z M 121.015625 9.789062 C 146.1875 7.25 171.785156 9.242188 199.015625 9.242188 C 223.945312 9.238281 254.105469 6.089844 274.820312 10.882812 C 291.695312 14.789062 307.90625 30.996094 309.976562 50.289062 C 311.0625 60.417969 309.429688 71.289062 309.429688 82.585938 C 309.429688 137.855469 309.425781 187.753906 309.429688 244.046875 C 309.429688 266.480469 311.75 289.621094 309.429688 307.539062 C 307.371094 323.410156 298.699219 334.609375 285.257812 342.023438 C 272.546875 349.03125 252.847656 347.496094 232.527344 347.496094 C 212.9375 347.496094 193.394531 347.496094 174.300781 347.496094 C 152.960938 347.496094 120.832031 351.148438 104.535156 343.664062 C 93.214844 338.464844 83.867188 328.074219 79.816406 314.65625 C 74.457031 296.894531 77.621094 270.933594 77.621094 246.238281 C 77.617188 187.492188 77.625 128.515625 77.621094 69.449219 C 77.621094 57.234375 77.804688 47.273438 81.464844 38.25 C 87.347656 23.742188 100.183594 11.890625 121.015625 9.789062 "/>
</g>
<path style=" stroke:none;fill-rule:evenodd;fill:rgb(100%,100%,99.21875%);fill-opacity:1;" d="M 110.578125 94.078125 C 108.765625 103.488281 108.765625 120.246094 110.578125 129.65625 C 112.042969 129.65625 113.507812 129.65625 114.972656 129.65625 C 117.113281 120.277344 116.109375 104.898438 115.523438 94.625 C 113.765625 93.652344 112.75 93.5625 110.578125 94.078125 Z M 205.058594 84.773438 C 200.699219 86.757812 194.664062 88.167969 188.582031 87.507812 C 184.300781 87.050781 179.386719 83.207031 177.59375 87.507812 C 177.613281 90.957031 181.25 90.800781 183.089844 92.4375 C 183.371094 104.382812 172.703125 124.132812 189.128906 125.824219 C 203.566406 127.308594 211.75 107.457031 209.453125 91.890625 C 211.492188 92.625 213.875 95.597656 216.046875 92.984375 C 216.339844 89.539062 213.046875 87.699219 211.652344 85.320312 C 209.90625 82.355469 209.695312 78.75 207.257812 76.015625 C 202.636719 75.757812 205.144531 81.765625 205.058594 84.773438 Z M 240.765625 49.742188 C 210.152344 45.382812 205.757812 88.886719 232.527344 93.53125 C 231.527344 95.519531 229.925781 98.015625 231.976562 100.097656 C 236.996094 100.925781 237.390625 95.984375 239.667969 93.53125 C 243.21875 89.699219 248.101562 86.527344 252.300781 83.679688 C 256.851562 80.589844 262.800781 79.375 266.035156 74.375 C 265.171875 70.472656 259.496094 73.328125 258.34375 73.277344 C 258.070312 59.910156 251.613281 51.289062 240.765625 49.742188 Z M 175.945312 66.710938 C 171.765625 41.269531 127.710938 46.175781 132.003906 73.824219 C 130.230469 72.519531 126.859375 71.347656 124.859375 73.277344 C 123.585938 77.886719 128.519531 78.199219 130.902344 79.300781 C 138.675781 82.882812 146.765625 88.519531 151.777344 94.625 C 153.738281 97.015625 153.648438 100.886719 158.367188 100.097656 C 160.828125 98.101562 158.53125 95.042969 157.820312 92.984375 C 170.261719 90.761719 178.226562 80.578125 175.945312 66.710938 Z M 302.835938 137.316406 C 229.960938 137.316406 157.089844 137.316406 84.210938 137.316406 C 87.980469 96.332031 74.816406 49.792969 95.746094 28.398438 C 112.117188 11.667969 148.089844 15.808594 181.988281 15.808594 C 198.441406 15.808594 215.304688 15.808594 231.976562 15.808594 C 248.363281 15.808594 265.890625 14.613281 278.117188 19.640625 C 289.164062 24.183594 300.703125 34.792969 302.835938 48.648438 C 304.964844 62.476562 302.835938 78.386719 302.835938 92.984375 C 302.835938 107.285156 302.835938 121.085938 302.835938 137.316406 "/>
<path style=" stroke:none;fill-rule:evenodd;fill:rgb(8.239746%,7.449341%,7.058716%);fill-opacity:1;" d="M 151.777344 66.710938 C 151.539062 61.875 142.992188 60.910156 144.085938 68.898438 C 147.050781 72.511719 151.972656 70.699219 151.777344 66.710938 Z M 166.609375 84.773438 C 182.460938 70.289062 160.15625 41.753906 141.890625 57.953125 C 137.765625 61.609375 131.644531 74.84375 140.789062 78.207031 C 137.121094 69.21875 142.578125 60.789062 147.933594 58.5 C 168.585938 49.675781 178.15625 87.167969 151.777344 86.960938 C 156.523438 91.535156 163.808594 87.328125 166.609375 84.773438 Z M 157.820312 92.980469 C 158.53125 95.042969 160.828125 98.101562 158.367188 100.097656 C 153.648438 100.886719 153.738281 97.015625 151.777344 94.625 C 146.765625 88.519531 138.675781 82.886719 130.902344 79.300781 C 128.519531 78.199219 123.585938 77.882812 124.859375 73.277344 C 126.859375 71.347656 130.230469 72.519531 132.003906 73.824219 C 127.710938 46.175781 171.765625 41.269531 175.945312 66.710938 C 178.226562 80.574219 170.261719 90.761719 157.820312 92.980469 "/>
<path style=" stroke:none;fill-rule:evenodd;fill:rgb(8.239746%,7.449341%,7.058716%);fill-opacity:1;" d="M 234.171875 66.710938 C 234.019531 63.695312 231.535156 62.8125 229.230469 63.425781 C 219.367188 66.054688 234.691406 76.808594 234.171875 66.710938 Z M 221.539062 71.089844 C 222.460938 49.746094 258.867188 56.210938 249.554688 78.75 C 250.6875 77.324219 252.894531 76.972656 253.949219 75.46875 C 259.222656 48.636719 218.523438 47 218.242188 71.089844 C 218.183594 76.101562 221.304688 83.398438 225.933594 86.414062 C 228.964844 88.390625 235.714844 91.46875 239.117188 86.414062 C 228.0625 86.683594 221.113281 80.910156 221.539062 71.089844 Z M 258.34375 73.277344 C 259.496094 73.328125 265.171875 70.472656 266.035156 74.375 C 262.800781 79.378906 256.851562 80.589844 252.300781 83.675781 C 248.101562 86.527344 243.21875 89.699219 239.667969 93.527344 C 237.390625 95.984375 236.996094 100.925781 231.976562 100.097656 C 229.925781 98.011719 231.53125 95.519531 232.527344 93.527344 C 205.757812 88.886719 210.152344 45.382812 240.765625 49.742188 C 251.613281 51.285156 258.070312 59.910156 258.34375 73.277344 "/>
<path style=" stroke:none;fill-rule:evenodd;fill:rgb(100%,100%,98.039246%);fill-opacity:1;" d="M 151.777344 86.960938 C 178.15625 87.167969 168.585938 49.675781 147.933594 58.5 C 142.578125 60.789062 137.121094 69.21875 140.792969 78.203125 C 131.644531 74.84375 137.765625 61.609375 141.890625 57.953125 C 160.15625 41.753906 182.464844 70.289062 166.609375 84.773438 C 163.8125 87.328125 156.523438 91.535156 151.777344 86.960938 "/>
<path style=" stroke:none;fill-rule:evenodd;fill:rgb(100%,100%,98.039246%);fill-opacity:1;" d="M 144.085938 68.898438 C 142.992188 60.910156 151.539062 61.875 151.777344 66.710938 C 151.972656 70.699219 147.050781 72.511719 144.085938 68.898438 "/>
<path style=" stroke:none;fill-rule:evenodd;fill:rgb(100%,100%,98.039246%);fill-opacity:1;" d="M 229.230469 63.425781 C 231.535156 62.8125 234.019531 63.695312 234.171875 66.710938 C 234.691406 76.808594 219.367188 66.054688 229.230469 63.425781 "/>
<path style=" stroke:none;fill-rule:evenodd;fill:rgb(8.239746%,7.449341%,7.058716%);fill-opacity:1;" d="M 186.382812 119.253906 C 196.726562 123.484375 201.648438 113.476562 203.960938 106.117188 C 195.570312 107.972656 189.195312 111.839844 186.382812 119.253906 Z M 185.285156 111.042969 C 189.832031 105.359375 196.914062 102.199219 205.058594 100.097656 C 205.058594 96.996094 205.058594 93.894531 205.058594 90.792969 C 200.285156 92.417969 194.664062 93.207031 188.03125 92.980469 C 189.632812 99.367188 185.554688 106.640625 185.285156 111.042969 Z M 207.257812 76.015625 C 209.695312 78.746094 209.90625 82.351562 211.652344 85.320312 C 213.050781 87.699219 216.339844 89.535156 216.046875 92.980469 C 213.875 95.597656 211.496094 92.625 209.453125 91.886719 C 211.75 107.457031 203.566406 127.308594 189.128906 125.824219 C 172.703125 124.132812 183.371094 104.382812 183.089844 92.433594 C 181.25 90.796875 177.613281 90.957031 177.59375 87.507812 C 179.386719 83.207031 184.300781 87.046875 188.582031 87.507812 C 194.667969 88.164062 200.699219 86.757812 205.058594 84.773438 C 205.148438 81.765625 202.636719 75.757812 207.257812 76.015625 "/>
<path style=" stroke:none;fill-rule:evenodd;fill:rgb(6.269836%,5.879211%,5.099487%);fill-opacity:1;" d="M 115.523438 94.625 C 116.109375 104.898438 117.113281 120.277344 114.972656 129.652344 C 113.507812 129.652344 112.042969 129.652344 110.578125 129.652344 C 108.765625 120.246094 108.765625 103.488281 110.578125 94.078125 C 112.75 93.5625 113.765625 93.652344 115.523438 94.625 "/>
<path style=" stroke:none;fill-rule:evenodd;fill:rgb(96.469116%,50.588989%,58.039856%);fill-opacity:1;" d="M 203.960938 106.121094 C 201.648438 113.476562 196.726562 123.484375 186.382812 119.257812 C 189.195312 111.839844 195.570312 107.976562 203.960938 106.121094 "/>
<path style=" stroke:none;fill-rule:evenodd;fill:rgb(100%,100%,99.21875%);fill-opacity:1;" d="M 110.578125 156.472656 C 108.765625 165.523438 108.765625 181.90625 110.578125 190.957031 C 112.042969 190.957031 113.507812 190.957031 114.972656 190.957031 C 116.789062 181.90625 116.789062 165.523438 114.972656 156.472656 C 113.226562 155.636719 112.558594 156.28125 110.578125 156.472656 Z M 84.761719 144.433594 C 157.453125 144.433594 230.144531 144.433594 302.835938 144.433594 C 302.835938 183.6875 302.835938 227.667969 302.835938 269.226562 C 302.835938 283.296875 304.800781 298.695312 302.289062 310.277344 C 298.96875 325.566406 286.046875 336.371094 272.625 339.832031 C 262.320312 342.492188 247.667969 340.925781 234.722656 340.929688 C 207.578125 340.929688 184.304688 340.925781 157.269531 340.929688 C 142.546875 340.929688 125.113281 342.914062 113.324219 339.285156 C 98.464844 334.710938 87.09375 322.28125 84.761719 304.253906 C 81.808594 281.433594 84.210938 253.601562 84.210938 225.984375 C 84.214844 198.652344 84.210938 170.972656 84.210938 146.074219 C 84.164062 145.296875 84.121094 144.523438 84.761719 144.433594 "/>
<path style=" stroke:none;fill-rule:evenodd;fill:rgb(6.269836%,5.879211%,5.099487%);fill-opacity:1;" d="M 114.972656 156.472656 C 116.789062 165.523438 116.789062 181.90625 114.972656 190.957031 C 113.507812 190.957031 112.042969 190.957031 110.578125 190.957031 C 108.765625 181.90625 108.765625 165.523438 110.578125 156.472656 C 112.558594 156.28125 113.226562 155.636719 114.972656 156.472656 "/>
<path style=" stroke:none;fill-rule:evenodd;fill:rgb(100%,100%,98.039246%);fill-opacity:1;" d="M 239.117188 86.414062 C 235.714844 91.46875 228.964844 88.390625 225.933594 86.414062 C 221.304688 83.398438 218.183594 76.101562 218.242188 71.089844 C 218.523438 47 259.222656 48.636719 253.949219 75.46875 C 252.894531 76.972656 250.6875 77.324219 249.554688 78.75 C 258.867188 56.210938 222.460938 49.742188 221.539062 71.089844 C 221.113281 80.910156 228.0625 86.683594 239.117188 86.414062 "/>
<path style=" stroke:none;fill-rule:evenodd;fill:rgb(56.079102%,11.759949%,14.118958%);fill-opacity:1;" d="M 188.03125 92.980469 C 194.664062 93.207031 200.285156 92.417969 205.058594 90.792969 C 205.058594 93.894531 205.058594 96.996094 205.058594 100.097656 C 196.914062 102.195312 189.832031 105.359375 185.285156 111.046875 C 185.554688 106.640625 189.632812 99.367188 188.03125 92.980469 "/>
</g>
</svg>
